<?xml version="1.0" encoding="utf-8"?>
<!-- Generator: Adobe Illustrator 28.1.0, SVG Export Plug-In . SVG Version: 6.00 Build 0)  -->
<svg version="1.1" id="Layer_1" xmlns="http://www.w3.org/2000/svg" xmlns:xlink="http://www.w3.org/1999/xlink" x="0px" y="0px"
	 viewBox="0 0 441.04 73.64" style="enable-background:new 0 0 441.04 73.64;" xml:space="preserve">
<style type="text/css">
	.st0{fill:#FFFFFF;}
</style>
<g>
	<path class="st0" d="M0,54.05C0.69,66.2,9.11,73.64,24.97,73.64c15.77,0,25.17-7.54,25.17-17.43c0-11.16-9.01-15.67-23.31-17.04
		c-8.52-0.78-9.6-2.45-9.6-4.21c0-2.55,2.15-4.41,7.74-4.41c5.68,0,7.93,2.45,8.13,6.27h15.47C47.79,24.48,37.7,18.8,25.26,18.8
		c-15.47,0-23.7,8.13-23.7,16.84c0,5.39,1.47,14.49,19.49,16.55c8.72,0.98,13.42,1.86,13.42,4.99c0,2.64-2.35,4.7-9.11,4.7
		c-7.44,0-9.79-3.82-9.89-7.83H0L0,54.05z M80.69,18.8c-17.04,0-27.42,12.34-27.42,27.42c0,15.08,10.38,27.42,27.42,27.42
		s27.42-12.34,27.42-27.42C108.11,31.14,97.73,18.8,80.69,18.8L80.69,18.8z M80.69,60.32c-7.74,0-11.75-6.46-11.75-14.1
		c0-7.64,4.01-14.1,11.75-14.1c7.74,0,11.75,6.46,11.75,14.1C92.44,53.86,88.42,60.32,80.69,60.32L80.69,60.32z M112.42,1.57v70.51
		h15.67V1.57H112.42L112.42,1.57z M132.39,58.26c0,8.62,7.54,15.37,18.02,15.37c8.62,0,14.4-4.6,17.63-10.97
		c0.39-0.69,0.78-1.86,2.06-1.27c1.08,0.49,0.2,2.06-0.59,3.72c-0.69,1.37-1.08,2.74-1.08,4.31v2.64h15.67V43.48
		c0-20.76-11.85-24.68-24.09-24.68c-11.56,0-24.29,4.99-26.05,18.8h15.47c0.78-3.92,3.13-7.05,10.18-7.05
		c7.15,0,8.72,3.72,8.81,6.66c0.1,4.41-6.46,3.82-15.67,4.41C141.6,42.3,132.39,46.61,132.39,58.26L132.39,58.26z M168.43,47
		c-0.1,10.67-7.34,14.88-12.04,15.67c-4.21,0.69-8.32-1.18-8.32-5.48c0-4.41,3.23-6.07,6.85-6.46
		C162.26,49.84,165.88,49.65,168.43,47L168.43,47z M203.97,31.43c-1.47-0.29-0.88-2.06-0.1-3.62c0.78-1.57,1.37-3.33,1.37-5.09
		v-2.35h-15.67v51.7h15.67V52c0-13.12,4.6-18.31,18.8-17.33V19.58c-12.44,0-15.37,3.62-18.41,10.48
		C205.34,30.75,204.86,31.63,203.97,31.43L203.97,31.43z M257.73,12.53h9.4V0h-14.49c-10.38,0-15.28,3.43-15.28,15.86v4.5h-7.83
		V32.9h7.83v39.17h15.67V32.9h14.1V20.37h-14.1v-2.74C253.03,12.73,253.23,12.53,257.73,12.53L257.73,12.53z M321.19,44.65
		c0-17.82-12.83-25.85-25.95-25.85c-17.33,0-27.32,11.36-27.32,27.42c0,15.28,9.6,27.42,27.61,27.42c14.59,0,22.62-9.01,24.68-18.8
		h-15.57c-1.27,3.82-4.31,6.27-9.2,6.27c-6.56,0-10.97-4.41-12.05-10.97h37.51C321.09,48.67,321.19,46.12,321.19,44.65L321.19,44.65
		z M295.53,30.94c5.78,0,9.69,3.53,10.28,9.79h-22.03C284.96,35.15,288.09,30.94,295.53,30.94L295.53,30.94z M339.89,31.43
		c-1.47-0.29-0.88-2.06-0.1-3.62c0.78-1.57,1.37-3.33,1.37-5.09v-2.35H325.5v51.7h15.67V52c0-13.12,4.6-18.31,18.8-17.33V19.58
		c-12.44,0-15.38,3.62-18.41,10.48C341.26,30.75,340.77,31.63,339.89,31.43L339.89,31.43z M425.57,18.8
		c-6.07,0-11.95,3.53-15.08,9.89c-0.49,0.98-0.98,1.27-1.96,1.27c-0.98,0-1.66-0.49-1.96-1.47c-1.57-5.78-5.58-9.69-12.14-9.69
		c-6.76,0-11.16,4.41-14.1,10.67c-0.29,0.69-0.78,1.66-1.96,1.27c-1.17-0.39-0.69-1.96,0.1-3.43c0.88-1.57,1.47-3.04,1.47-4.99
		v-1.96h-15.67v51.7h15.67V49.55c0-9.99,3.52-17.43,9.3-17.43c4.6,0,5.58,4.31,5.58,12.14v27.81h15.67V47.4
		c0-9.2,3.52-15.28,8.03-15.28c4.99,0,6.85,3.13,6.85,10.97v28.99h15.67V39.95C441.04,23.7,434.19,18.8,425.57,18.8L425.57,18.8z"/>
</g>
</svg>
